<svg width="40" height="40" viewBox="0 0 40 40" fill="none" xmlns="http://www.w3.org/2000/svg">
<path d="M20.0081 3.33334C25.531 3.33334 30.0081 7.81049 30.0081 13.3333V15H36.6748V18.3333H34.7298L33.4688 33.4717C33.3968 34.3355 32.6746 35 31.8078 35H8.20833C7.34151 35 6.6194 34.3355 6.54741 33.4717L5.28476 18.3333H3.34143V15H10.0081V13.3333C10.0081 7.81049 14.4852 3.33334 20.0081 3.33334ZM21.6748 21.6667H18.3415V28.3333H21.6748V21.6667ZM15.0081 21.6667H11.6748V28.3333H15.0081V21.6667ZM28.3415 21.6667H25.0081V28.3333H28.3415V21.6667ZM20.0081 6.66668C16.4378 6.66668 13.523 9.47329 13.3496 13.0006L13.3414 13.3333V15H26.6748V13.3333C26.6748 9.76301 23.8681 6.84821 20.3408 6.67484L20.0081 6.66668Z" fill="#2E2E2E"/>
</svg>
